Mumbai Mirror 2013 Hindi Movies DvDScr Sample Included ~ rDX

Screen Shots :
 
http://myimghosting.serveftp.com/MumbaiMirror.html
 
http://myimghost.cwahi.net/MumbaiMirror.html


Format                                   : Matroska
Format version                           : Version 1
File size                                : 696 MiB
Duration                                 : 2h 7mn
Overall bit rate                         : 761 Kbps
Encoded date                             : UTC 2013-01-22 05:07:08

Video
ID                                       : 1
Format                                   : AVC
Format/Info                              : Advanced Video Codec
Format profile                           : High@L3.0
Format settings, CABAC                   : Yes
Format settings, ReFrames                : 4 frames
Codec ID                                 : V_MPEG4/ISO/AVC
Duration                                 : 2h 7mn
Bit rate                                 : 695 Kbps
Width                                    : 688 pixels
Height                                   : 300 pixels
Display aspect ratio                     : 2.25:1
Frame rate mode                          : Constant
Frame rate                               : 25.000 fps
Color space                              : YUV
Chroma subsampling                       : 4:2:0
Bit depth                                : 8 bits
Scan type                                : Progressive
Bits/(Pixel*Frame)                       : 0.135
Stream size                              : 624 MiB (90%)
Writing library                          : x264 core 129 r2230 1cffe9f
Default                                  : Yes
Forced                                   : No

Audio
ID                                       : 2
Format                                   : AC-3
Format/Info                              : Audio Coding 3
Mode extension                           : CM (complete main)
Format settings, Endianness              : Big
Codec ID                                 : A_AC3
Duration                                 : 2h 7mn
Bit rate mode                            : Constant
Bit rate                                 : 64.0 Kbps
Channel(s)                               : 2 channels
Channel positions                        : Front: L R
Sampling rate                            : 48.0 KHz
Bit depth                                : 16 bits
Compression mode                         : Lossy
Stream size                              : 58.5 MiB (8%)
Default                                  : Yes
Forced                                   : No